<svg width="300" height="200" xmlns="http://www.w3.org/2000/svg">
    <defs>
      <linearGradient id="bg" x1="0%" y1="0%" x2="100%" y2="100%">
        <stop offset="0%" style="stop-color:#84CC16;stop-opacity:1" />
        <stop offset="100%" style="stop-color:#A3E635;stop-opacity:1" />
      </linearGradient>
      <filter id="shadow">
        <feDropShadow dx="2" dy="2" stdDeviation="3" flood-opacity="0.3"/>
      </filter>
    </defs>
    
    <!-- Background with gradient -->
    <rect width="300" height="200" fill="url(#bg)" rx="15"/>
    
    <!-- Decorative border -->
    <rect x="5" y="5" width="290" height="190" fill="none" stroke="white" stroke-width="2" rx="10" opacity="0.5"/>
    
    <!-- Large emoji in center -->
    <text x="150" y="90" font-family="Arial, sans-serif" font-size="48" text-anchor="middle" filter="url(#shadow)">📖</text>
    
    <!-- Title text -->
    <text x="150" y="140" font-family="Arial, sans-serif" font-size="18" font-weight="bold" fill="white" text-anchor="middle" filter="url(#shadow)">Read Book</text>
    
    <!-- Fun decorative stars -->
    <polygon points="30,30 32,36 38,36 33,40 35,46 30,42 25,46 27,40 22,36 28,36" fill="white" opacity="0.6"/>
    <polygon points="270,30 272,36 278,36 273,40 275,46 270,42 265,46 267,40 262,36 268,36" fill="white" opacity="0.6"/>
    <polygon points="50,170 52,176 58,176 53,180 55,186 50,182 45,186 47,180 42,176 48,176" fill="white" opacity="0.4"/>
    <polygon points="250,170 252,176 258,176 253,180 255,186 250,182 245,186 247,180 242,176 248,176" fill="white" opacity="0.4"/>
  </svg>